M48
;DRILL file {Pcbnew (2012-jan-04)-stable} date Sat 28 Jul 2012 05:13:09 PM CEST
;FORMAT={-:-/ absolute / inch / decimal}
FMAT,2
INCH,TZ
T1C0.025
T2C0.032
T3C0.039
T4C0.040
T5C0.125
%
G90
G05
M72
T1
X3.675Y2.415
X3.775Y2.350
X3.780Y2.815
X3.875Y2.575
X3.880Y3.600
X4.080Y2.490
X4.090Y2.390
X4.100Y3.795
X4.103Y4.050
X4.105Y3.100
X4.160Y2.660
X4.355Y3.110
X4.355Y4.065
X4.360Y2.540
X4.415Y3.000
X4.415Y3.950
X4.475Y3.750
X4.510Y2.720
X4.510Y3.595
X4.540Y2.480
X4.550Y2.850
X4.550Y3.800
X4.575Y2.725
X4.640Y2.600
X4.840Y3.800
X4.850Y2.875
X5.010Y3.970
X5.038Y3.520
X5.065Y3.428
X5.090Y3.770
X5.160Y2.955
X5.180Y2.760
X5.180Y2.820
X5.195Y3.333
X5.195Y3.490
X5.205Y3.855
X5.215Y2.875
X5.260Y3.680
X5.260Y3.740
X5.375Y3.655
X5.380Y3.440
X5.380Y3.500
X5.440Y3.440
X5.450Y3.575
X5.460Y3.160
X5.475Y3.783
X5.615Y3.993
X5.625Y3.150
X5.635Y3.820
X5.655Y3.050
X5.710Y3.990
X5.740Y2.680
X5.840Y3.760
X5.923Y3.265
X5.940Y3.135
T2
X4.235Y2.230
X4.235Y2.368
X4.335Y2.230
X4.335Y2.368
X4.435Y2.230
X4.435Y2.368
X4.535Y2.230
X4.535Y2.368
X4.595Y4.130
X4.595Y4.268
X4.635Y2.230
X4.635Y2.368
X4.695Y4.130
X4.695Y4.268
X4.735Y2.230
X4.735Y2.368
X4.795Y4.130
X4.795Y4.268
X4.835Y2.230
X4.835Y2.368
X4.895Y4.130
X4.895Y4.268
X4.935Y2.230
X4.935Y2.368
X4.995Y4.130
X4.995Y4.268
X5.095Y2.230
X5.095Y2.368
X5.095Y4.130
X5.095Y4.268
X5.195Y2.230
X5.195Y2.368
X5.295Y2.230
X5.295Y2.368
X5.295Y4.130
X5.295Y4.268
X5.395Y2.230
X5.395Y2.368
X5.395Y4.130
X5.395Y4.268
X5.495Y2.230
X5.495Y2.368
X5.495Y4.130
X5.495Y4.268
X5.595Y2.230
X5.595Y2.368
X5.595Y4.130
X5.595Y4.268
X5.695Y2.230
X5.695Y2.368
X5.695Y4.130
X5.695Y4.268
X5.795Y2.230
X5.795Y2.368
X5.795Y4.130
X5.795Y4.268
T3
X3.344Y2.194
X3.344Y2.406
X3.344Y2.644
X3.344Y2.856
X3.344Y3.094
X3.344Y3.306
X3.344Y3.569
X3.344Y3.781
X3.344Y4.044
X3.344Y4.256
X3.450Y2.300
X3.450Y2.750
X3.450Y3.200
X3.450Y3.675
X3.450Y4.150
X3.556Y2.194
X3.556Y2.406
X3.556Y2.644
X3.556Y2.856
X3.556Y3.094
X3.556Y3.306
X3.556Y3.569
X3.556Y3.781
X3.556Y4.044
X3.556Y4.256
T4
X5.625Y3.480
X5.625Y3.580
X5.725Y3.480
X5.725Y3.580
X5.825Y3.480
X5.825Y3.580
X5.925Y3.480
X5.925Y3.580
T5
X3.845Y4.130
X3.895Y2.230
X5.895Y2.830
X5.895Y3.930
T0
M30
