G04 (created by PCBNEW-RS274X (2012-jan-04)-stable) date Thu 19 Apr 2012 09:17:57 PM CEST*
G01*
G70*
G90*
%MOIN*%
G04 Gerber Fmt 3.4, Leading zero omitted, Abs format*
%FSLAX34Y34*%
G04 APERTURE LIST*
%ADD10C,0.006000*%
%ADD11C,0.015000*%
%ADD12R,0.031800X0.098700*%
%ADD13R,0.098700X0.031800*%
%ADD14R,0.075000X0.055000*%
%ADD15R,0.055000X0.075000*%
%ADD16R,0.065000X0.045000*%
%ADD17R,0.045000X0.065000*%
%ADD18R,0.067200X0.067200*%
%ADD19R,0.090000X0.090000*%
%ADD20R,0.090000X0.087000*%
%ADD21C,0.090000*%
%ADD22C,0.059400*%
G04 APERTURE END LIST*
G54D10*
G54D11*
X27390Y-33527D02*
X27390Y-39127D01*
X34190Y-32327D02*
X28590Y-32327D01*
X35390Y-39127D02*
X35390Y-33527D01*
X28590Y-40327D02*
X34190Y-40327D01*
X27390Y-39127D02*
X27395Y-39231D01*
X27409Y-39335D01*
X27431Y-39437D01*
X27463Y-39537D01*
X27503Y-39634D01*
X27551Y-39726D01*
X27608Y-39815D01*
X27671Y-39898D01*
X27742Y-39975D01*
X27819Y-40046D01*
X27902Y-40109D01*
X27991Y-40166D01*
X28083Y-40214D01*
X28180Y-40254D01*
X28280Y-40286D01*
X28382Y-40308D01*
X28486Y-40322D01*
X28590Y-40327D01*
X28590Y-32327D02*
X28486Y-32332D01*
X28382Y-32346D01*
X28280Y-32368D01*
X28180Y-32400D01*
X28083Y-32440D01*
X27991Y-32488D01*
X27902Y-32545D01*
X27819Y-32608D01*
X27742Y-32679D01*
X27671Y-32756D01*
X27608Y-32839D01*
X27551Y-32928D01*
X27503Y-33020D01*
X27463Y-33117D01*
X27431Y-33217D01*
X27409Y-33319D01*
X27395Y-33423D01*
X27390Y-33527D01*
X35390Y-33527D02*
X35385Y-33423D01*
X35371Y-33319D01*
X35349Y-33217D01*
X35317Y-33117D01*
X35277Y-33020D01*
X35229Y-32928D01*
X35172Y-32839D01*
X35109Y-32756D01*
X35038Y-32679D01*
X34961Y-32608D01*
X34878Y-32545D01*
X34790Y-32488D01*
X34697Y-32440D01*
X34600Y-32400D01*
X34500Y-32368D01*
X34398Y-32346D01*
X34294Y-32332D01*
X34190Y-32327D01*
X34190Y-40327D02*
X34294Y-40322D01*
X34398Y-40308D01*
X34500Y-40286D01*
X34600Y-40254D01*
X34697Y-40214D01*
X34790Y-40166D01*
X34878Y-40109D01*
X34961Y-40046D01*
X35038Y-39975D01*
X35109Y-39898D01*
X35172Y-39815D01*
X35229Y-39726D01*
X35277Y-39634D01*
X35317Y-39537D01*
X35349Y-39437D01*
X35371Y-39335D01*
X35385Y-39231D01*
X35390Y-39127D01*
G54D12*
X31202Y-37203D03*
X31399Y-37203D03*
X31596Y-37203D03*
X31793Y-37203D03*
X31989Y-37203D03*
X32186Y-37203D03*
X32383Y-37203D03*
X32580Y-37203D03*
G54D13*
X33268Y-36515D03*
X33268Y-36318D03*
X33268Y-36121D03*
X33268Y-35924D03*
X33268Y-35728D03*
X33268Y-35531D03*
X33268Y-35334D03*
X33268Y-35137D03*
G54D10*
G36*
X32420Y-33955D02*
X32738Y-33955D01*
X32738Y-34941D01*
X32420Y-34941D01*
X32420Y-33955D01*
X32420Y-33955D01*
G37*
G36*
X32223Y-33955D02*
X32541Y-33955D01*
X32541Y-34941D01*
X32223Y-34941D01*
X32223Y-33955D01*
X32223Y-33955D01*
G37*
G36*
X32026Y-33955D02*
X32344Y-33955D01*
X32344Y-34941D01*
X32026Y-34941D01*
X32026Y-33955D01*
X32026Y-33955D01*
G37*
G36*
X31829Y-33955D02*
X32147Y-33955D01*
X32147Y-34941D01*
X31829Y-34941D01*
X31829Y-33955D01*
X31829Y-33955D01*
G37*
G36*
X31633Y-33955D02*
X31951Y-33955D01*
X31951Y-34941D01*
X31633Y-34941D01*
X31633Y-33955D01*
X31633Y-33955D01*
G37*
G36*
X31436Y-33955D02*
X31754Y-33955D01*
X31754Y-34941D01*
X31436Y-34941D01*
X31436Y-33955D01*
X31436Y-33955D01*
G37*
G36*
X31239Y-33955D02*
X31557Y-33955D01*
X31557Y-34941D01*
X31239Y-34941D01*
X31239Y-33955D01*
X31239Y-33955D01*
G37*
G36*
X31042Y-33955D02*
X31360Y-33955D01*
X31360Y-34941D01*
X31042Y-34941D01*
X31042Y-33955D01*
X31042Y-33955D01*
G37*
G54D13*
X30512Y-35137D03*
X30512Y-35334D03*
X30512Y-35531D03*
X30512Y-35728D03*
X30512Y-35924D03*
X30512Y-36121D03*
X30512Y-36318D03*
X30512Y-36515D03*
G54D14*
X34640Y-37252D03*
X34640Y-38002D03*
G54D15*
X34865Y-34727D03*
X34115Y-34727D03*
G54D14*
X34640Y-35952D03*
X34640Y-36702D03*
G54D15*
X29608Y-35138D03*
X28858Y-35138D03*
G54D14*
X33890Y-36952D03*
X33890Y-37702D03*
G54D16*
X28790Y-35827D03*
X28790Y-36427D03*
X28839Y-37003D03*
X28839Y-37603D03*
X28790Y-33827D03*
X28790Y-34427D03*
X29921Y-38283D03*
X29921Y-38883D03*
X29233Y-38283D03*
X29233Y-38883D03*
X32382Y-38283D03*
X32382Y-38883D03*
G54D17*
X32990Y-38827D03*
X33590Y-38827D03*
X31107Y-38780D03*
X30507Y-38780D03*
G54D16*
X31693Y-38283D03*
X31693Y-38883D03*
G54D18*
X30203Y-34427D03*
X29377Y-34427D03*
G54D19*
X30890Y-39827D03*
X33890Y-39827D03*
X32890Y-39827D03*
X28890Y-39827D03*
X29890Y-39827D03*
X31890Y-39827D03*
X31890Y-32827D03*
X32890Y-32827D03*
X27890Y-37827D03*
X27890Y-36827D03*
X27890Y-35827D03*
G54D20*
X30890Y-32827D03*
G54D19*
X29890Y-32827D03*
X33890Y-32827D03*
X27890Y-33827D03*
G54D21*
X34690Y-33027D03*
G54D19*
X27890Y-38827D03*
G54D21*
X34690Y-39627D03*
G54D16*
X29490Y-36327D03*
X29490Y-35727D03*
X30690Y-37527D03*
X30690Y-38127D03*
X33190Y-37427D03*
X33190Y-38027D03*
G54D21*
X28090Y-33027D03*
X28090Y-39627D03*
G54D19*
X34890Y-33827D03*
X34890Y-38827D03*
G54D22*
X31959Y-35758D03*
X30821Y-36896D03*
M02*
