M48
;DRILL file {Pcbnew (2012-jan-04)-stable} date Mon 02 Apr 2012 09:14:59 PM CEST
;FORMAT={-:-/ absolute / inch / decimal}
FMAT,2
INCH,TZ
T1C0.025
T2C0.040
%
G90
G05
M72
T1
X2.809Y3.513
X2.859Y3.873
X3.389Y3.833
X3.409Y3.643
T2
X2.789Y3.383
X2.789Y3.583
X2.789Y3.683
X2.789Y3.783
X2.789Y3.883
X2.809Y3.303
X2.809Y3.963
X2.889Y3.983
X2.989Y3.283
X2.989Y3.983
X3.089Y3.283
X3.089Y3.983
X3.189Y3.283
X3.189Y3.983
X3.289Y3.283
X3.289Y3.983
X3.389Y3.283
X3.389Y3.983
X3.469Y3.303
X3.469Y3.963
X3.489Y3.383
X3.489Y3.883
T0
M30
