G04 (created by PCBNEW-RS274X (2012-jan-04)-stable) date Mon 02 Apr 2012 09:15:32 PM CEST*
G01*
G70*
G90*
%MOIN*%
G04 Gerber Fmt 3.4, Leading zero omitted, Abs format*
%FSLAX34Y34*%
G04 APERTURE LIST*
%ADD10C,0.006000*%
%ADD11C,0.007500*%
%ADD12C,0.015000*%
%ADD13C,0.012000*%
G04 APERTURE END LIST*
G54D10*
G54D11*
X28752Y-39277D02*
X28752Y-39091D01*
X28904Y-39191D01*
X28904Y-39149D01*
X28923Y-39120D01*
X28942Y-39106D01*
X28980Y-39091D01*
X29076Y-39091D01*
X29114Y-39106D01*
X29133Y-39120D01*
X29152Y-39149D01*
X29152Y-39234D01*
X29133Y-39263D01*
X29114Y-39277D01*
X29152Y-38963D02*
X28752Y-38963D01*
X28752Y-38848D01*
X28771Y-38820D01*
X28790Y-38805D01*
X28828Y-38791D01*
X28885Y-38791D01*
X28923Y-38805D01*
X28942Y-38820D01*
X28961Y-38848D01*
X28961Y-38963D01*
X29652Y-39284D02*
X29652Y-39098D01*
X29804Y-39198D01*
X29804Y-39156D01*
X29823Y-39127D01*
X29842Y-39113D01*
X29880Y-39098D01*
X29976Y-39098D01*
X30014Y-39113D01*
X30033Y-39127D01*
X30052Y-39156D01*
X30052Y-39241D01*
X30033Y-39270D01*
X30014Y-39284D01*
X30052Y-38970D02*
X29652Y-38970D01*
X30052Y-38798D01*
X29652Y-38798D01*
X31052Y-39098D02*
X31052Y-39270D01*
X31052Y-39184D02*
X30652Y-39184D01*
X30709Y-39213D01*
X30747Y-39241D01*
X30766Y-39270D01*
X31052Y-38970D02*
X30652Y-38970D01*
X31052Y-38798D01*
X30652Y-38798D01*
X32052Y-39091D02*
X32052Y-39263D01*
X32052Y-39177D02*
X31652Y-39177D01*
X31709Y-39206D01*
X31747Y-39234D01*
X31766Y-39263D01*
X32052Y-38963D02*
X31652Y-38963D01*
X31652Y-38848D01*
X31671Y-38820D01*
X31690Y-38805D01*
X31728Y-38791D01*
X31785Y-38791D01*
X31823Y-38805D01*
X31842Y-38820D01*
X31861Y-38848D01*
X31861Y-38963D01*
X32690Y-39270D02*
X32671Y-39256D01*
X32652Y-39227D01*
X32652Y-39156D01*
X32671Y-39127D01*
X32690Y-39113D01*
X32728Y-39098D01*
X32766Y-39098D01*
X32823Y-39113D01*
X33052Y-39284D01*
X33052Y-39098D01*
X33052Y-38970D02*
X32652Y-38970D01*
X33052Y-38798D01*
X32652Y-38798D01*
X33690Y-39263D02*
X33671Y-39249D01*
X33652Y-39220D01*
X33652Y-39149D01*
X33671Y-39120D01*
X33690Y-39106D01*
X33728Y-39091D01*
X33766Y-39091D01*
X33823Y-39106D01*
X34052Y-39277D01*
X34052Y-39091D01*
X34052Y-38963D02*
X33652Y-38963D01*
X33652Y-38848D01*
X33671Y-38820D01*
X33690Y-38805D01*
X33728Y-38791D01*
X33785Y-38791D01*
X33823Y-38805D01*
X33842Y-38820D01*
X33861Y-38848D01*
X33861Y-38963D01*
X28554Y-37889D02*
X28554Y-37622D01*
X28554Y-37698D02*
X28569Y-37660D01*
X28583Y-37641D01*
X28612Y-37622D01*
X28640Y-37622D01*
X28855Y-37870D02*
X28826Y-37889D01*
X28769Y-37889D01*
X28740Y-37870D01*
X28726Y-37832D01*
X28726Y-37679D01*
X28740Y-37641D01*
X28769Y-37622D01*
X28826Y-37622D01*
X28855Y-37641D01*
X28869Y-37679D01*
X28869Y-37717D01*
X28726Y-37756D01*
X28955Y-37622D02*
X29069Y-37622D01*
X28997Y-37889D02*
X28997Y-37546D01*
X29012Y-37508D01*
X29040Y-37489D01*
X29069Y-37489D01*
X28533Y-37089D02*
X28533Y-36689D01*
X28676Y-37089D02*
X28676Y-36689D01*
X28848Y-37089D01*
X28848Y-36689D01*
X28504Y-35989D02*
X28504Y-35589D01*
X28647Y-35989D02*
X28647Y-35589D01*
X28819Y-35989D01*
X28819Y-35589D01*
X28919Y-35589D02*
X29019Y-35989D01*
X29119Y-35589D01*
X27712Y-35189D02*
X27612Y-34998D01*
X27540Y-35189D02*
X27540Y-34789D01*
X27655Y-34789D01*
X27683Y-34808D01*
X27698Y-34827D01*
X27712Y-34865D01*
X27712Y-34922D01*
X27698Y-34960D01*
X27683Y-34979D01*
X27655Y-34998D01*
X27540Y-34998D01*
X27983Y-35189D02*
X27840Y-35189D01*
X27840Y-34789D01*
X28083Y-35189D02*
X28083Y-34789D01*
X28155Y-34789D01*
X28198Y-34808D01*
X28226Y-34846D01*
X28241Y-34884D01*
X28255Y-34960D01*
X28255Y-35017D01*
X28241Y-35094D01*
X28226Y-35132D01*
X28198Y-35170D01*
X28155Y-35189D01*
X28083Y-35189D01*
G54D12*
X27390Y-33527D02*
X27390Y-39127D01*
X34190Y-32327D02*
X28590Y-32327D01*
X35390Y-39127D02*
X35390Y-33527D01*
X28590Y-40327D02*
X34190Y-40327D01*
X27390Y-39127D02*
X27395Y-39231D01*
X27409Y-39335D01*
X27431Y-39437D01*
X27463Y-39537D01*
X27503Y-39634D01*
X27551Y-39726D01*
X27608Y-39815D01*
X27671Y-39898D01*
X27742Y-39975D01*
X27819Y-40046D01*
X27902Y-40109D01*
X27991Y-40166D01*
X28083Y-40214D01*
X28180Y-40254D01*
X28280Y-40286D01*
X28382Y-40308D01*
X28486Y-40322D01*
X28590Y-40327D01*
X28590Y-32327D02*
X28486Y-32332D01*
X28382Y-32346D01*
X28280Y-32368D01*
X28180Y-32400D01*
X28083Y-32440D01*
X27991Y-32488D01*
X27902Y-32545D01*
X27819Y-32608D01*
X27742Y-32679D01*
X27671Y-32756D01*
X27608Y-32839D01*
X27551Y-32928D01*
X27503Y-33020D01*
X27463Y-33117D01*
X27431Y-33217D01*
X27409Y-33319D01*
X27395Y-33423D01*
X27390Y-33527D01*
X35390Y-33527D02*
X35385Y-33423D01*
X35371Y-33319D01*
X35349Y-33217D01*
X35317Y-33117D01*
X35277Y-33020D01*
X35229Y-32928D01*
X35172Y-32839D01*
X35109Y-32756D01*
X35038Y-32679D01*
X34961Y-32608D01*
X34878Y-32545D01*
X34790Y-32488D01*
X34697Y-32440D01*
X34600Y-32400D01*
X34500Y-32368D01*
X34398Y-32346D01*
X34294Y-32332D01*
X34190Y-32327D01*
X34190Y-40327D02*
X34294Y-40322D01*
X34398Y-40308D01*
X34500Y-40286D01*
X34600Y-40254D01*
X34697Y-40214D01*
X34790Y-40166D01*
X34878Y-40109D01*
X34961Y-40046D01*
X35038Y-39975D01*
X35109Y-39898D01*
X35172Y-39815D01*
X35229Y-39726D01*
X35277Y-39634D01*
X35317Y-39537D01*
X35349Y-39437D01*
X35371Y-39335D01*
X35385Y-39231D01*
X35390Y-39127D01*
G54D13*
X29652Y-38690D02*
X30076Y-38266D01*
X29915Y-38105D01*
X29854Y-38084D01*
X29814Y-38084D01*
X29753Y-38104D01*
X29692Y-38165D01*
X29672Y-38226D01*
X29672Y-38266D01*
X29693Y-38327D01*
X29854Y-38488D01*
X29005Y-38044D02*
X29248Y-38287D01*
X29126Y-38165D02*
X29551Y-37741D01*
X29530Y-37842D01*
X29531Y-37923D01*
X29551Y-37983D01*
X34175Y-35339D02*
X34176Y-35380D01*
X34216Y-35461D01*
X34257Y-35501D01*
X34337Y-35541D01*
X34418Y-35541D01*
X34479Y-35521D01*
X34580Y-35461D01*
X34640Y-35400D01*
X34701Y-35299D01*
X34721Y-35239D01*
X34721Y-35157D01*
X34681Y-35077D01*
X34640Y-35037D01*
X34560Y-34996D01*
X34519Y-34996D01*
X34297Y-34693D02*
X34216Y-34612D01*
X34155Y-34591D01*
X34074Y-34592D01*
X33974Y-34653D01*
X33832Y-34794D01*
X33771Y-34894D01*
X33771Y-34975D01*
X33792Y-35037D01*
X33873Y-35117D01*
X33933Y-35137D01*
X34014Y-35137D01*
X34115Y-35077D01*
X34257Y-34935D01*
X34317Y-34834D01*
X34317Y-34753D01*
X34297Y-34693D01*
X33508Y-34753D02*
X33933Y-34329D01*
X33266Y-34511D01*
X33690Y-34086D01*
X33064Y-34308D02*
X33488Y-33884D01*
X32821Y-34066D01*
X33245Y-33641D01*
X32680Y-34005D02*
X32357Y-33682D01*
X32074Y-33318D02*
X32316Y-33561D01*
X32195Y-33439D02*
X32619Y-33015D01*
X32598Y-33116D01*
X32599Y-33197D01*
X32620Y-33258D01*
M02*
