G04 (created by PCBNEW-RS274X (2012-jan-04)-stable) date Mon 02 Apr 2012 09:15:32 PM CEST*
G01*
G70*
G90*
%MOIN*%
G04 Gerber Fmt 3.4, Leading zero omitted, Abs format*
%FSLAX34Y34*%
G04 APERTURE LIST*
%ADD10C,0.006000*%
%ADD11C,0.015000*%
%ADD12R,0.090000X0.090000*%
%ADD13R,0.090000X0.087000*%
%ADD14C,0.090000*%
%ADD15C,0.354600*%
%ADD16C,0.059400*%
G04 APERTURE END LIST*
G54D10*
G54D11*
X27390Y-33527D02*
X27390Y-39127D01*
X34190Y-32327D02*
X28590Y-32327D01*
X35390Y-39127D02*
X35390Y-33527D01*
X28590Y-40327D02*
X34190Y-40327D01*
X27390Y-39127D02*
X27395Y-39231D01*
X27409Y-39335D01*
X27431Y-39437D01*
X27463Y-39537D01*
X27503Y-39634D01*
X27551Y-39726D01*
X27608Y-39815D01*
X27671Y-39898D01*
X27742Y-39975D01*
X27819Y-40046D01*
X27902Y-40109D01*
X27991Y-40166D01*
X28083Y-40214D01*
X28180Y-40254D01*
X28280Y-40286D01*
X28382Y-40308D01*
X28486Y-40322D01*
X28590Y-40327D01*
X28590Y-32327D02*
X28486Y-32332D01*
X28382Y-32346D01*
X28280Y-32368D01*
X28180Y-32400D01*
X28083Y-32440D01*
X27991Y-32488D01*
X27902Y-32545D01*
X27819Y-32608D01*
X27742Y-32679D01*
X27671Y-32756D01*
X27608Y-32839D01*
X27551Y-32928D01*
X27503Y-33020D01*
X27463Y-33117D01*
X27431Y-33217D01*
X27409Y-33319D01*
X27395Y-33423D01*
X27390Y-33527D01*
X35390Y-33527D02*
X35385Y-33423D01*
X35371Y-33319D01*
X35349Y-33217D01*
X35317Y-33117D01*
X35277Y-33020D01*
X35229Y-32928D01*
X35172Y-32839D01*
X35109Y-32756D01*
X35038Y-32679D01*
X34961Y-32608D01*
X34878Y-32545D01*
X34790Y-32488D01*
X34697Y-32440D01*
X34600Y-32400D01*
X34500Y-32368D01*
X34398Y-32346D01*
X34294Y-32332D01*
X34190Y-32327D01*
X34190Y-40327D02*
X34294Y-40322D01*
X34398Y-40308D01*
X34500Y-40286D01*
X34600Y-40254D01*
X34697Y-40214D01*
X34790Y-40166D01*
X34878Y-40109D01*
X34961Y-40046D01*
X35038Y-39975D01*
X35109Y-39898D01*
X35172Y-39815D01*
X35229Y-39726D01*
X35277Y-39634D01*
X35317Y-39537D01*
X35349Y-39437D01*
X35371Y-39335D01*
X35385Y-39231D01*
X35390Y-39127D01*
G54D12*
X30890Y-39827D03*
X33890Y-39827D03*
X32890Y-39827D03*
X28890Y-39827D03*
X29890Y-39827D03*
X31890Y-39827D03*
X31890Y-32827D03*
X32890Y-32827D03*
X27890Y-37827D03*
X27890Y-36827D03*
X27890Y-35827D03*
G54D13*
X30890Y-32827D03*
G54D12*
X29890Y-32827D03*
X33890Y-32827D03*
X27890Y-33827D03*
G54D14*
X34690Y-33027D03*
G54D12*
X27890Y-38827D03*
G54D14*
X34690Y-39627D03*
X28090Y-33027D03*
X28090Y-39627D03*
G54D12*
X34890Y-33827D03*
X34890Y-38827D03*
G54D15*
X31390Y-36327D03*
G54D16*
X31959Y-35758D03*
X30821Y-36896D03*
M02*
