G04 (created by PCBNEW-RS274X (2012-jan-04)-stable) date Fri 08 Jun 2012 02:15:33 PM CEST*
G01*
G70*
G90*
%MOIN*%
G04 Gerber Fmt 3.4, Leading zero omitted, Abs format*
%FSLAX34Y34*%
G04 APERTURE LIST*
%ADD10C,0.006000*%
%ADD11R,0.055000X0.075000*%
%ADD12R,0.080000X0.080000*%
%ADD13C,0.080000*%
%ADD14O,0.080000X0.120000*%
%ADD15C,0.175000*%
%ADD16C,0.098700*%
%ADD17C,0.065000*%
G04 APERTURE END LIST*
G54D10*
G54D11*
X47575Y-39725D03*
X48325Y-39725D03*
G54D12*
X56250Y-34800D03*
G54D13*
X57250Y-34800D03*
X58250Y-34800D03*
X59250Y-34800D03*
G54D12*
X56250Y-35800D03*
G54D13*
X57250Y-35800D03*
X58250Y-35800D03*
X59250Y-35800D03*
G54D14*
X54950Y-42678D03*
X53950Y-42678D03*
X52950Y-42678D03*
X55950Y-42678D03*
X56950Y-42678D03*
X57950Y-42678D03*
X47950Y-42678D03*
X45950Y-42678D03*
X46950Y-42678D03*
X48950Y-42678D03*
X49950Y-42678D03*
X50950Y-42678D03*
X50950Y-23678D03*
X51950Y-23678D03*
X52950Y-23678D03*
X53950Y-23678D03*
X54950Y-23678D03*
X55950Y-23678D03*
X56950Y-23678D03*
X57950Y-23678D03*
X42350Y-23678D03*
X43350Y-23678D03*
X44350Y-23678D03*
X45350Y-23678D03*
X46350Y-23678D03*
X47350Y-23678D03*
X48350Y-23678D03*
X49350Y-23678D03*
X57950Y-41300D03*
X56950Y-41300D03*
X55950Y-41300D03*
X52950Y-41300D03*
X53950Y-41300D03*
X54950Y-41300D03*
X50950Y-41300D03*
X49950Y-41300D03*
X48950Y-41300D03*
X46950Y-41300D03*
X45950Y-41300D03*
X57950Y-22300D03*
X56950Y-22300D03*
X55950Y-22300D03*
X54950Y-22300D03*
X53950Y-22300D03*
X52950Y-22300D03*
X51950Y-22300D03*
X50950Y-22300D03*
X49350Y-22300D03*
X48350Y-22300D03*
X47350Y-22300D03*
X46350Y-22300D03*
X45350Y-22300D03*
X44350Y-22300D03*
X43350Y-22300D03*
X42350Y-22300D03*
X47950Y-41300D03*
G54D15*
X58950Y-39300D03*
X58950Y-28300D03*
X38950Y-22300D03*
X38450Y-41300D03*
G54D16*
X34500Y-23000D03*
X33437Y-21937D03*
X33437Y-24063D03*
X35563Y-24063D03*
X35563Y-21937D03*
X34500Y-32000D03*
X33437Y-30937D03*
X33437Y-33063D03*
X35563Y-33063D03*
X35563Y-30937D03*
X34500Y-27500D03*
X33437Y-26437D03*
X33437Y-28563D03*
X35563Y-28563D03*
X35563Y-26437D03*
X34500Y-41500D03*
X33437Y-40437D03*
X33437Y-42563D03*
X35563Y-42563D03*
X35563Y-40437D03*
X34500Y-36750D03*
X33437Y-35687D03*
X33437Y-37813D03*
X35563Y-37813D03*
X35563Y-35687D03*
G54D17*
X56250Y-31500D03*
X45750Y-27250D03*
X44750Y-37500D03*
X54500Y-35750D03*
M02*
